<svg width="22" height="22" viewBox="0 0 22 22" fill="none" xmlns="http://www.w3.org/2000/svg">
<rect width="22" height="22" fill="#F5F5F5"/>
<g id="Desktop">
<rect width="1806" height="7370" transform="translate(-864 -2823)" fill="white"/>
<g id="Chrome_Default_Audio_Player">
<g id="Property 1=Default">
<rect x="-694" y="-15" width="730" height="52" rx="6" fill="#FAFAFA"/>
<g id="more" clip-path="url(#clip0_0_1)">
<path id="Vector" d="M11.0001 7.33341C12.0084 7.33341 12.8334 6.50841 12.8334 5.50008C12.8334 4.49175 12.0084 3.66675 11.0001 3.66675C9.99175 3.66675 9.16675 4.49175 9.16675 5.50008C9.16675 6.50841 9.99175 7.33341 11.0001 7.33341ZM11.0001 9.16675C9.99175 9.16675 9.16675 9.99175 9.16675 11.0001C9.16675 12.0084 9.99175 12.8334 11.0001 12.8334C12.0084 12.8334 12.8334 12.0084 12.8334 11.0001C12.8334 9.99175 12.0084 9.16675 11.0001 9.16675ZM11.0001 14.6667C9.99175 14.6667 9.16675 15.4917 9.16675 16.5001C9.16675 17.5084 9.99175 18.3334 11.0001 18.3334C12.0084 18.3334 12.8334 17.5084 12.8334 16.5001C12.8334 15.4917 12.0084 14.6667 11.0001 14.6667Z" fill="#303A3D"/>
</g>
</g>
<rect x="-713.5" y="-34.5" width="769" height="307" rx="4.5" stroke="#9747FF" stroke-dasharray="10 5"/>
</g>
</g>
<defs>
<clipPath id="clip0_0_1">
<rect width="22" height="22" fill="white"/>
</clipPath>
</defs>
</svg>
