<svg width="20" height="17" viewBox="0 0 20 17" fill="none" xmlns="http://www.w3.org/2000/svg">
<path d="M1 5.67359C1 4.18945 1 3.44739 1.28883 2.88052C1.5429 2.38189 1.9483 1.97649 2.44693 1.72243C3.01379 1.43359 3.75586 1.43359 5.24 1.43359H14.4267C15.9108 1.43359 16.6529 1.43359 17.2197 1.72243C17.7184 1.97649 18.1238 2.38189 18.3778 2.88052C18.6667 3.44739 18.6667 4.18945 18.6667 5.67359V11.3269C18.6667 12.8111 18.6667 13.5531 18.3778 14.12C18.1238 14.6186 17.7184 15.024 17.2197 15.2781C16.6529 15.5669 15.9108 15.5669 14.4267 15.5669H5.24C3.75586 15.5669 3.01379 15.5669 2.44693 15.2781C1.9483 15.024 1.5429 14.6186 1.28883 14.12C1 13.5531 1 12.8111 1 11.3269V5.67359Z" fill="white"/>
<path d="M1 4.08359L8.21234 9.13223C8.79638 9.54106 9.0884 9.74547 9.40603 9.82465C9.68661 9.89459 9.98006 9.89459 10.2606 9.82465C10.5783 9.74547 10.8703 9.54106 11.4543 9.13224L18.6667 4.08359M5.24 15.5669H14.4267C15.9108 15.5669 16.6529 15.5669 17.2197 15.2781C17.7184 15.024 18.1238 14.6186 18.3778 14.12C18.6667 13.5531 18.6667 12.8111 18.6667 11.3269V5.67359C18.6667 4.18945 18.6667 3.44739 18.3778 2.88052C18.1238 2.38189 17.7184 1.97649 17.2197 1.72243C16.6529 1.43359 15.9108 1.43359 14.4267 1.43359H5.24C3.75586 1.43359 3.01379 1.43359 2.44693 1.72243C1.9483 1.97649 1.5429 2.38189 1.28883 2.88052C1 3.44739 1 4.18945 1 5.67359V11.3269C1 12.8111 1 13.5531 1.28883 14.12C1.5429 14.6186 1.9483 15.024 2.44693 15.2781C3.01379 15.5669 3.75586 15.5669 5.24 15.5669Z" stroke="#FCBE13" stroke-width="2" stroke-linecap="round" stroke-linejoin="round"/>
</svg>
