<svg width="30" height="30" viewBox="0 0 30 30" fill="none" xmlns="http://www.w3.org/2000/svg">
<rect width="30" height="30" rx="15" fill="#1DA1F2"/>
<path d="M22.3516 11.7578C22.3516 11.9219 22.3516 12.0859 22.3516 12.2266C22.3516 17.0781 18.6484 22.6797 11.8984 22.6797C9.8125 22.6797 7.89062 22.0703 6.25 21.0391C6.53125 21.0625 6.83594 21.0859 7.11719 21.0859C8.82812 21.0859 10.4219 20.5 11.6875 19.5156C10.0703 19.4922 8.71094 18.4141 8.26562 16.9609C8.5 17.0078 8.71094 17.0312 8.96875 17.0312C9.29687 17.0312 9.625 16.9844 9.92969 16.8906C8.24219 16.5625 6.97656 15.0859 6.97656 13.3047C6.97656 13.2812 6.97656 13.2812 6.97656 13.2578C7.46875 13.5391 8.03125 13.7031 8.64062 13.7266C7.65625 13.0703 7 11.9453 7 10.6562C7 9.97656 7.1875 9.34375 7.49219 8.80469C9.29687 11.0312 12.0156 12.4844 15.0625 12.6484C14.9922 12.3906 14.9687 12.0859 14.9687 11.8047C14.9687 9.76563 16.6094 8.125 18.6484 8.125C19.7031 8.125 20.6641 8.57031 21.3203 9.27344C22.1641 9.10938 22.9375 8.80469 23.6641 8.38281C23.3828 9.25 22.7969 9.95313 22.0469 10.4219C22.7969 10.3281 23.5 10.1406 24.1562 9.83594C23.6875 10.5859 23.0781 11.2422 22.3516 11.7578Z" fill="white"/>
</svg>
