<svg width="30" height="30" viewBox="0 0 30 30" fill="none" xmlns="http://www.w3.org/2000/svg">
<rect x="0.000244141" width="30" height="30" rx="15" fill="#EE8208"/>
<path d="M14.9997 8.0251C16.1782 8.0251 17.1369 8.98373 17.1369 10.1622C17.1369 11.3398 16.178 12.2984 14.9997 12.2984C13.822 12.2984 12.8631 11.3398 12.8631 10.1622C12.8628 8.98348 13.8222 8.0251 14.9997 8.0251ZM14.9997 15.322C17.8464 15.322 20.1615 13.0077 20.1615 10.1622C20.1615 7.31528 17.8467 5 14.9997 5C12.1533 5 9.83798 7.31552 9.83798 10.1622C9.83798 13.0077 12.1533 15.322 14.9997 15.322ZM17.0879 19.5323C18.1498 19.2905 19.1631 18.8709 20.0851 18.2913C20.4246 18.0777 20.6652 17.7381 20.7542 17.3471C20.8433 16.9561 20.7733 16.5457 20.5597 16.2063C20.4541 16.038 20.3164 15.8923 20.1544 15.7773C19.9924 15.6624 19.8093 15.5805 19.6157 15.5363C19.422 15.4922 19.2215 15.4866 19.0257 15.52C18.8299 15.5534 18.6426 15.6251 18.4745 15.7309C16.3598 17.0604 13.6381 17.0594 11.5252 15.7309C11.3571 15.625 11.1699 15.5534 10.9741 15.52C10.7783 15.4865 10.5778 15.4921 10.3841 15.5362C10.1905 15.5804 10.0074 15.6623 9.84545 15.7773C9.68348 15.8922 9.54577 16.038 9.4402 16.2063C9.22658 16.5456 9.1565 16.9559 9.24537 17.3469C9.33424 17.7379 9.57477 18.0776 9.91407 18.2913C10.836 18.8707 11.8491 19.2902 12.9108 19.5323L10.0253 22.4183C9.74169 22.702 9.58242 23.0867 9.58249 23.4878C9.58256 23.8888 9.74196 24.2735 10.0256 24.5571C10.3093 24.8406 10.694 24.9999 11.0951 24.9998C11.4962 24.9997 11.8808 24.8403 12.1644 24.5567L14.9992 21.7213L17.8358 24.5569C17.9761 24.6974 18.1426 24.8088 18.326 24.8848C18.5094 24.9609 18.7059 25 18.9044 25C19.1029 25 19.2994 24.9609 19.4828 24.8848C19.6661 24.8088 19.8327 24.6974 19.973 24.5569C20.1136 24.4167 20.2252 24.2501 20.3014 24.0666C20.3775 23.8832 20.4167 23.6865 20.4167 23.4879C20.4167 23.2892 20.3775 23.0926 20.3014 22.9091C20.2252 22.7257 20.1136 22.559 19.973 22.4188L17.0879 19.5323Z" fill="white"/>
</svg>
