<svg width="24" height="20" viewBox="0 0 24 20" fill="none" xmlns="http://www.w3.org/2000/svg">
<path d="M2 5L10.1651 10.7154C10.8263 11.1783 11.1568 11.4097 11.5164 11.4993C11.8341 11.5785 12.1663 11.5785 12.4839 11.4993C12.8435 11.4097 13.1741 11.1783 13.8353 10.7154L22.0004 5M6.80009 18H17.2003C18.8805 18 19.7206 18 20.3623 17.673C20.9268 17.3854 21.3858 16.9265 21.6734 16.362C22.0004 15.7202 22.0004 14.8802 22.0004 13.2V6.8C22.0004 5.11984 22.0004 4.27976 21.6734 3.63803C21.3858 3.07354 20.9268 2.6146 20.3623 2.32698C19.7206 2 18.8805 2 17.2003 2H6.80009C5.1199 2 4.27981 2 3.63806 2.32698C3.07356 2.6146 2.61461 3.07354 2.32699 3.63803C2 4.27976 2 5.11984 2 6.8V13.2C2 14.8802 2 15.7202 2.32699 16.362C2.61461 16.9265 3.07356 17.3854 3.63806 17.673C4.27981 18 5.1199 18 6.80009 18Z" stroke="#FCBE13" stroke-width="2.26417" stroke-linecap="round" stroke-linejoin="round"/>
</svg>
