<svg width="30" height="30" viewBox="0 0 30 30" fill="none" xmlns="http://www.w3.org/2000/svg">
<rect width="30" height="30" rx="15" fill="#0DC143"/>
<path d="M21.7188 8.25718C20.1107 6.60177 17.8877 5.70312 15.6174 5.70312C10.7931 5.70312 6.91473 9.6288 6.96203 14.4058C6.96203 15.9193 7.3877 17.3856 8.09716 18.7099L6.86743 23.2031L11.4553 22.0207C12.7323 22.7302 14.1512 23.0612 15.5701 23.0612C20.3472 23.0612 24.2255 19.1356 24.2255 14.3585C24.2255 12.041 23.3269 9.86529 21.7188 8.25718ZM15.6174 21.595C14.3404 21.595 13.0634 21.2639 11.9755 20.6018L11.6918 20.4599L8.94851 21.1693L9.65797 18.4734L9.46878 18.1896C7.3877 14.8315 8.38095 10.3856 11.7864 8.30448C15.1918 6.2234 19.5904 7.21664 21.6715 10.622C23.7526 14.0274 22.7593 18.4261 19.3539 20.5072C18.2661 21.2166 16.9418 21.595 15.6174 21.595ZM19.7796 16.345L19.2593 16.1085C19.2593 16.1085 18.5026 15.7774 18.0296 15.541C17.9823 15.541 17.935 15.4937 17.8877 15.4937C17.7458 15.4937 17.6512 15.541 17.5566 15.5883C17.5566 15.5883 17.5093 15.6356 16.8472 16.3923C16.7999 16.4869 16.7053 16.5342 16.6107 16.5342H16.5634C16.5161 16.5342 16.4215 16.4869 16.3742 16.4396L16.1377 16.345C15.6174 16.1085 15.1445 15.8247 14.7661 15.4464C14.6715 15.3518 14.5296 15.2572 14.435 15.1626C14.1039 14.8315 13.7728 14.4531 13.5364 14.0274L13.4891 13.9329C13.4418 13.8856 13.4418 13.8383 13.3945 13.7437C13.3945 13.6491 13.3945 13.5545 13.4418 13.5072C13.4418 13.5072 13.6309 13.2707 13.7728 13.1288C13.8674 13.0342 13.9147 12.8923 14.0093 12.7977C14.1039 12.6558 14.1512 12.4666 14.1039 12.3247C14.0566 12.0883 13.4891 10.8112 13.3472 10.5274C13.2526 10.3856 13.158 10.3383 13.0161 10.291H12.8742C12.7796 10.291 12.6377 10.291 12.4958 10.291C12.4012 10.291 12.3066 10.3383 12.212 10.3383L12.1647 10.3856C12.0701 10.4329 11.9755 10.5274 11.8809 10.5747C11.7864 10.6693 11.7391 10.7639 11.6445 10.8585C11.3134 11.2842 11.1242 11.8045 11.1242 12.3247C11.1242 12.7031 11.2188 13.0815 11.3607 13.4126L11.408 13.5545C11.8336 14.4531 12.4012 15.2572 13.158 15.9666L13.3472 16.1558C13.4891 16.2977 13.6309 16.3923 13.7255 16.5342C14.7188 17.3856 15.8539 18.0004 17.1309 18.3315C17.2728 18.3788 17.462 18.3788 17.6039 18.4261C17.7458 18.4261 17.935 18.4261 18.0769 18.4261C18.3134 18.4261 18.5972 18.3315 18.7864 18.2369C18.9282 18.1423 19.0228 18.1423 19.1174 18.0477L19.212 17.9531C19.3066 17.8585 19.4012 17.8112 19.4958 17.7166C19.5904 17.622 19.685 17.5274 19.7323 17.4329C19.8269 17.2437 19.8742 17.0072 19.9215 16.7707C19.9215 16.6761 19.9215 16.5342 19.9215 16.4396C19.9215 16.4396 19.8742 16.3923 19.7796 16.345Z" fill="white"/>
</svg>
