<svg width="30" height="30" viewBox="0 0 30 30" fill="none" xmlns="http://www.w3.org/2000/svg">
<rect width="30" height="30" rx="15" fill="#419FD9"/>
<rect width="30" height="30" rx="15" fill="url(#paint0_linear_134_2376)"/>
<path d="M6.7421 14.6693C11.1042 12.7289 14.0129 11.4497 15.4683 10.8316C19.6237 9.06688 20.4872 8.76033 21.05 8.7501C21.1738 8.74798 21.4505 8.7793 21.6298 8.92783C21.7812 9.05324 21.8228 9.22266 21.8428 9.34157C21.8627 9.46047 21.8875 9.73135 21.8678 9.943C21.6426 12.3588 20.6682 18.2212 20.1725 20.9269C19.9628 22.0717 19.5498 22.4556 19.1499 22.4932C18.281 22.5748 17.6212 21.9069 16.7795 21.3436C15.4626 20.4622 14.7186 19.9135 13.4403 19.0534C11.9629 18.0594 12.9206 17.513 13.7626 16.6202C13.9829 16.3865 17.8115 12.831 17.8856 12.5084C17.8948 12.4681 17.9034 12.3177 17.8159 12.2383C17.7284 12.1589 17.5993 12.1861 17.5061 12.2077C17.374 12.2383 15.2702 13.6581 11.1946 16.467C10.5974 16.8857 10.0565 17.0897 9.57188 17.079C9.03762 17.0672 8.00991 16.7706 7.24592 16.517C6.30885 16.206 5.56408 16.0416 5.62894 15.5134C5.66272 15.2383 6.03377 14.9569 6.7421 14.6693Z" fill="white"/>
<defs>
<linearGradient id="paint0_linear_134_2376" x1="15" y1="0" x2="15" y2="29.7774" gradientUnits="userSpaceOnUse">
<stop stop-color="#2AABEE"/>
<stop offset="1" stop-color="#229ED9"/>
</linearGradient>
</defs>
</svg>
