<svg width="30" height="30" viewBox="0 0 30 30" fill="none" xmlns="http://www.w3.org/2000/svg">
<rect width="30" height="30" rx="15" fill="#5181B8"/>
<path fill-rule="evenodd" clip-rule="evenodd" d="M24.5411 10.334C24.6802 9.87049 24.5411 9.52979 23.8794 9.52979H21.6914C21.135 9.52979 20.8787 9.82407 20.7396 10.1487C20.7396 10.1487 19.6269 12.8607 18.0505 14.6224C17.5406 15.1323 17.3088 15.2944 17.0306 15.2944C16.8915 15.2944 16.6902 15.1323 16.6902 14.6688V10.334C16.6902 9.77766 16.5288 9.52979 16.0651 9.52979H12.6268C12.2792 9.52979 12.0701 9.78797 12.0701 10.0327C12.0701 10.5602 12.8581 10.6818 12.9394 12.1652V15.3874C12.9394 16.0938 12.8118 16.222 12.5336 16.222C11.7919 16.222 9.98773 13.4976 8.91748 10.3805C8.70774 9.77453 8.49738 9.52979 7.93819 9.52979H5.75018C5.12503 9.52979 5 9.82407 5 10.1487C5 10.7282 5.74189 13.6026 8.45393 17.4041C10.2622 20 12.8093 21.4076 15.1274 21.4076C16.5183 21.4076 16.6902 21.095 16.6902 20.5566V18.5944C16.6902 17.9693 16.822 17.8445 17.2622 17.8445C17.587 17.8445 18.1432 18.0068 19.4415 19.2585C20.925 20.7418 21.1694 21.4076 22.004 21.4076H24.192C24.8171 21.4076 25.1297 21.095 24.9493 20.4781C24.7521 19.8633 24.0438 18.9715 23.1039 17.9141C22.594 17.3113 21.8289 16.6622 21.5973 16.3378C21.2727 15.9205 21.3654 15.7351 21.5973 15.3644C21.5973 15.3644 24.2629 11.6092 24.5411 10.3342V10.334Z" fill="white"/>
</svg>
