<svg width="20" height="20" viewBox="0 0 20 20" fill="none" xmlns="http://www.w3.org/2000/svg">
<g clip-path="url(#clip0_159_1127)">
<path fill-rule="evenodd" clip-rule="evenodd" d="M1.40589 1.40589C0 2.81178 0 5.07452 0 9.6V10.4C0 14.9255 0 17.1882 1.40589 18.5941C2.81178 20 5.07452 20 9.6 20H10.4C14.9255 20 17.1882 20 18.5941 18.5941C20 17.1882 20 14.9255 20 10.4V9.6C20 5.07452 20 2.81178 18.5941 1.40589C17.1882 0 14.9255 0 10.4 0H9.6C5.07452 0 2.81178 0 1.40589 1.40589ZM3.37504 6.08337C3.48338 11.2834 6.08336 14.4084 10.6417 14.4084H10.9001V11.4334C12.5751 11.6 13.8416 12.825 14.35 14.4084H16.7167C16.0667 12.0417 14.3583 10.7334 13.2916 10.2334C14.3583 9.61669 15.8583 8.11671 16.2166 6.08337H14.0666C13.5999 7.73337 12.2167 9.23335 10.9001 9.37501V6.08337H8.75V11.85C7.41668 11.5167 5.73338 9.90003 5.65838 6.08337H3.37504Z" fill="white"/>
</g>
<defs>
<clipPath id="clip0_159_1127">
<rect width="20" height="20" fill="white"/>
</clipPath>
</defs>
</svg>
